<svg width="288" height="288" viewBox="0 0 288 288" fill="none" xmlns="http://www.w3.org/2000/svg">
<circle cx="93" cy="72" r="44" fill="#F2F1EC"/>
<path d="M150 72.1905C150 47.7848 170.063 28 194.812 28C219.561 28 238 47.7848 238 72.1905V180.392C234.705 205.737 222.738 233.681 193.513 248.627C193.513 248.627 179.325 260 150 260V166.095V72.1905Z" fill="#F2F1EC"/>
<path d="M137 149.905C137 135.598 116.937 124 92.1882 124C67.4393 124 49 135.598 49 149.905V213.333C52.295 228.19 64.262 244.571 93.4871 253.333C93.4871 253.333 107.675 260 137 260V149.905Z" fill="#F2F1EC"/>
</svg>
